<?xml version="1.0" encoding="UTF-8" standalone="no"?>
<!-- Uploaded to: SVG Repo, www.svgrepo.com, Generator: SVG Repo Mixer Tools -->

<svg
   width="666.7699"
   height="666.7962"
   viewBox="0 0 20.003097 20.003886"
   fill="none"
   version="1.1"
   id="svg1"
   sodipodi:docname="briefcase-alt-1-svgrepo-com.svg"
   inkscape:version="1.4 (86a8ad7, 2024-10-11)"
   xmlns:inkscape="http://www.inkscape.org/namespaces/inkscape"
   xmlns:sodipodi="http://sodipodi.sourceforge.net/DTD/sodipodi-0.dtd"
   xmlns="http://www.w3.org/2000/svg"
   xmlns:svg="http://www.w3.org/2000/svg">
  <defs
     id="defs1" />
  <sodipodi:namedview
     id="namedview1"
     pagecolor="#505050"
     bordercolor="#eeeeee"
     borderopacity="1"
     inkscape:showpageshadow="0"
     inkscape:pageopacity="0"
     inkscape:pagecheckerboard="0"
     inkscape:deskcolor="#505050"
     inkscape:zoom="1.45875"
     inkscape:cx="333.50471"
     inkscape:cy="333.50471"
     inkscape:window-width="2560"
     inkscape:window-height="1369"
     inkscape:window-x="2552"
     inkscape:window-y="-8"
     inkscape:window-maximized="1"
     inkscape:current-layer="svg1" />
  <path
     d="m 14.001548,5.0023351 v -0.8 c 0,-1.1201 0,-1.68016 -0.218,-2.10798 -0.1917,-0.37633 -0.4977,-0.68229 -0.874,-0.87403 -0.4278,-0.21799 -0.9879,-0.21799 -2.108,-0.21799 H 9.2015482 c -1.1201,0 -1.68016,0 -2.10798,0.21799 -0.37633,0.19174 -0.68229,0.4977 -0.87403,0.87403 -0.21799,0.42782 -0.21799,0.98788 -0.21799,2.10798 v 0.8 m -4,5.2360999 v 3.9639 c 0,1.6802 0,2.5202 0.32698,3.162 0.28762,0.5645 0.74656,1.0234 1.31105,1.311 0.64173,0.327 1.48181,0.327 3.16197,0.327 h 6.3999998 c 1.6802,0 2.5202,0 3.162,-0.327 0.5645,-0.2876 1.0234,-0.7465 1.311,-1.311 0.327,-0.6418 0.327,-1.4818 0.327,-3.162 v -3.9639 m -10.9999998,2.7639 V 9.0023351 M 13.001548,13.002335 V 9.0023351 m -11.9999998,-4 H 19.001548 v 1.2 c 0,1.68016 0,2.5202 -0.327,3.162 -0.2876,0.5645 -0.7465,1.0233999 -1.311,1.3109999 -0.6418,0.327 -1.4818,0.327 -3.162,0.327 H 5.8015482 c -1.68016,0 -2.52024,0 -3.16197,-0.327 -0.56449,-0.2876 -1.02343,-0.7464999 -1.31105,-1.3109999 -0.32698,-0.6418 -0.32698,-1.48184 -0.32698,-3.162 z"
     stroke="#000000"
     stroke-width="2"
     stroke-linecap="round"
     stroke-linejoin="round"
     id="path1"
     style="stroke:#ff5555" />
</svg>
