<?xml version="1.0" encoding="UTF-8" standalone="no"?>
<!-- Uploaded to: SVG Repo, www.svgrepo.com, Generator: SVG Repo Mixer Tools -->

<svg
   width="666.76996"
   height="666.71832"
   viewBox="0 0 20.003099 20.00155"
   fill="none"
   version="1.1"
   id="svg1"
   sodipodi:docname="tv-svgrepo-com.svg"
   inkscape:version="1.4 (86a8ad7, 2024-10-11)"
   xmlns:inkscape="http://www.inkscape.org/namespaces/inkscape"
   xmlns:sodipodi="http://sodipodi.sourceforge.net/DTD/sodipodi-0.dtd"
   xmlns="http://www.w3.org/2000/svg"
   xmlns:svg="http://www.w3.org/2000/svg">
  <defs
     id="defs1" />
  <sodipodi:namedview
     id="namedview1"
     pagecolor="#505050"
     bordercolor="#eeeeee"
     borderopacity="1"
     inkscape:showpageshadow="0"
     inkscape:pageopacity="0"
     inkscape:pagecheckerboard="0"
     inkscape:deskcolor="#505050"
     inkscape:zoom="1.45875"
     inkscape:cx="333.50471"
     inkscape:cy="333.50471"
     inkscape:window-width="2560"
     inkscape:window-height="1369"
     inkscape:window-x="2552"
     inkscape:window-y="-8"
     inkscape:window-maximized="1"
     inkscape:current-layer="svg1" />
  <path
     d="m 13.00155,5 v 14 m 3,-10 h 0.01 m -0.01,3 h 0.01 m -0.01,3 h 0.01 m -1.01,-14 -5,4 -5.0000003,-4 m 0.8,18 H 14.20155 c 1.6802,0 2.5202,0 3.162,-0.327 0.5645,-0.2876 1.0234,-0.7465 1.311,-1.311 0.327,-0.6418 0.327,-1.4818 0.327,-3.162 V 9.8 c 0,-1.6802 0,-2.52024 -0.327,-3.16197 C 18.38695,6.07354 17.92805,5.6146 17.36355,5.32698 16.72175,5 15.88175,5 14.20155,5 H 5.8015497 c -1.68016,0 -2.52024,0 -3.16197,0.32698 -0.56449,0.28762 -1.02343,0.74656 -1.31105,1.31105 -0.32698,0.64173 -0.32698,1.48177 -0.32698,3.16197 v 4.4 c 0,1.6802 0,2.5202 0.32698,3.162 0.28762,0.5645 0.74656,1.0234 1.31105,1.311 C 3.2813097,19 4.1213897,19 5.8015497,19 Z"
     stroke="#000000"
     stroke-width="2"
     stroke-linecap="round"
     stroke-linejoin="round"
     id="path1"
     style="stroke:#55d400" />
</svg>
